<svg width="22" height="22" viewBox="0 0 22 22" fill="none" xmlns="http://www.w3.org/2000/svg">
<path d="M9.85546 15.4553V17.3162C9.85546 18.8928 8.38879 20.167 6.58295 20.167C4.77712 20.167 3.30127 18.8928 3.30127 17.3162V15.4553C3.30127 17.032 4.76795 18.1503 6.58295 18.1503C8.38879 18.1503 9.85546 17.0228 9.85546 15.4553Z" stroke="#1E2329" stroke-opacity="0.75" stroke-width="1.5" stroke-linecap="round" stroke-linejoin="round"/>
<path d="M9.85432 12.9342C9.85432 13.3925 9.72599 13.8142 9.50599 14.1808C8.96515 15.07 7.85598 15.6292 6.57264 15.6292C5.28931 15.6292 4.18013 15.0608 3.6393 14.1808C3.4193 13.8142 3.29102 13.3925 3.29102 12.9342C3.29102 12.1458 3.65766 11.44 4.24433 10.9267C4.84016 10.4042 5.65597 10.0925 6.56347 10.0925C7.47097 10.0925 8.28683 10.4133 8.88266 10.9267C9.48766 11.4308 9.85432 12.1458 9.85432 12.9342Z" stroke="#1E2329" stroke-opacity="0.75" stroke-width="1.5" stroke-linecap="round" stroke-linejoin="round"/>
<path d="M9.85546 12.9341V15.4549C9.85546 17.0316 8.38879 18.1499 6.58295 18.1499C4.77712 18.1499 3.30127 17.0224 3.30127 15.4549V12.9341C3.30127 11.3574 4.76795 10.0833 6.58295 10.0833C7.49045 10.0833 8.30631 10.4041 8.90215 10.9174C9.48881 11.4307 9.85546 12.1457 9.85546 12.9341Z" stroke="#1E2329" stroke-opacity="0.75" stroke-width="1.5" stroke-linecap="round" stroke-linejoin="round"/>
<path d="M20.1665 10.0558V11.9442C20.1665 12.4484 19.7632 12.8608 19.2499 12.8792H17.4532C16.4632 12.8792 15.5557 12.155 15.4732 11.165C15.4182 10.5875 15.6382 10.0467 16.0232 9.67083C16.3624 9.32249 16.8299 9.12085 17.3432 9.12085H19.2499C19.7632 9.13918 20.1665 9.55164 20.1665 10.0558Z" stroke="#1E2329" stroke-opacity="0.75" stroke-width="1.5" stroke-linecap="round" stroke-linejoin="round"/>
<path d="M1.8335 9.62492V7.79159C1.8335 5.29825 3.33683 3.55658 5.67433 3.26325C5.91267 3.22658 6.16016 3.20825 6.41683 3.20825H14.6668C14.9052 3.20825 15.1343 3.21741 15.3543 3.25407C17.7193 3.52907 19.2502 5.27992 19.2502 7.79159V9.12076H17.3435C16.8301 9.12076 16.3626 9.32241 16.0235 9.67074C15.6385 10.0466 15.4185 10.5874 15.4735 11.1649C15.556 12.1549 16.4635 12.8791 17.4535 12.8791H19.2502V14.2083C19.2502 16.9583 17.4168 18.7916 14.6668 18.7916H12.3752" stroke="#1E2329" stroke-opacity="0.75" stroke-width="1.5" stroke-linecap="round" stroke-linejoin="round"/>
</svg>
