<svg width="22" height="22" viewBox="0 0 22 22" fill="none" xmlns="http://www.w3.org/2000/svg">
<path d="M14.6668 11.8249V15.6749C14.6668 18.8833 13.3835 20.1666 10.1752 20.1666H6.32516C3.11683 20.1666 1.8335 18.8833 1.8335 15.6749V11.8249C1.8335 8.61658 3.11683 7.33325 6.32516 7.33325H10.1752C13.3835 7.33325 14.6668 8.61658 14.6668 11.8249Z" stroke="#1E2329" stroke-opacity="0.75" stroke-width="1.5" stroke-linecap="round" stroke-linejoin="round"/>
<path d="M20.1668 6.32492V10.1749C20.1668 13.3833 18.8835 14.6666 15.6752 14.6666H14.6668V11.8249C14.6668 8.61659 13.3835 7.33325 10.1752 7.33325H7.3335V6.32492C7.3335 3.11659 8.61683 1.83325 11.8252 1.83325H15.6752C18.8835 1.83325 20.1668 3.11659 20.1668 6.32492Z" stroke="#1E2329" stroke-opacity="0.75" stroke-width="1.5" stroke-linecap="round" stroke-linejoin="round"/>
</svg>
