<svg width="174" height="39" viewBox="0 0 174 39" fill="none" xmlns="http://www.w3.org/2000/svg">
<path d="M34 6.31944L23.3351 0L12.2145 6.31944L23.3351 12.7292V25.1875L34 19.0486V6.31944Z" fill="#1E2329"/>
<path d="M34 33.0417V20.6736L23.3351 26.7222L12.2145 20.6736V32.5L23.3351 39L34 33.0417Z" fill="#1E2329"/>
<path d="M21.7855 13.4514L10.6649 7.40278L0 13.4514V26.2708L10.6649 32.5V19.7708L21.7855 13.4514Z" fill="#1E2329"/>
<path d="M45.833 25.5H48.208L51.6777 15.7217C51.752 15.5114 51.8138 15.3104 51.8633 15.1187C51.9128 14.9269 51.9561 14.7352 51.9932 14.5435H52.0674C52.1107 14.7352 52.1571 14.9269 52.2065 15.1187C52.256 15.3104 52.3179 15.5114 52.3921 15.7217L55.8618 25.5H58.5059L53.4312 11.9272H50.8613L45.833 25.5ZM48.4585 22.3457H55.7319L55.1382 20.4717H49.0522L48.4585 22.3457ZM57.6201 15.8701L61.2846 25.5H63.4184L67.0737 15.8701H64.8749L62.7875 21.7705C62.7071 22.0055 62.6422 22.222 62.5927 22.4199C62.5432 22.6117 62.5061 22.7817 62.4814 22.9302H62.4257C62.401 22.7817 62.3639 22.6086 62.3144 22.4106C62.2711 22.2127 62.2093 21.9993 62.1288 21.7705L60.0322 15.8701H57.6201ZM67.3568 22.6704C67.3568 23.6662 67.6722 24.4176 68.3031 24.9248C68.9402 25.4258 69.7318 25.6763 70.6781 25.6763C71.4698 25.6763 72.1285 25.5309 72.6542 25.2402C73.1799 24.9434 73.5417 24.6063 73.7396 24.229C73.7644 24.4578 73.8077 24.6898 73.8695 24.9248C73.9314 25.1598 74.0025 25.3516 74.0829 25.5H76.4486V25.3516C76.3311 25.098 76.2383 24.7949 76.1703 24.4424C76.1023 24.0837 76.0682 23.7064 76.0682 23.3105V18.9131C76.0682 17.7874 75.7188 16.9525 75.0199 16.4082C74.321 15.8639 73.3407 15.5918 72.079 15.5918C70.8235 15.5918 69.8122 15.8763 69.0453 16.4453C68.2784 17.0081 67.8949 17.707 67.8949 18.542V18.6719H70.2699V18.5513C70.2699 18.1925 70.3998 17.8926 70.6596 17.6514C70.9255 17.404 71.3677 17.2803 71.9862 17.2803C72.5985 17.2803 73.0284 17.4287 73.2758 17.7256C73.5232 18.0225 73.6469 18.4121 73.6469 18.8945V19.4883H71.6337C70.3967 19.4945 69.3731 19.7697 68.5629 20.314C67.7588 20.8521 67.3568 21.6375 67.3568 22.6704ZM69.7782 22.4849C69.7782 22.0086 69.9607 21.6406 70.3256 21.3809C70.6967 21.1211 71.2564 20.9912 72.0048 20.9912H73.6469V22.0488C73.6469 22.556 73.4304 23.0075 72.9974 23.4033C72.5645 23.7992 72.0481 23.9971 71.4481 23.9971C70.8729 23.9971 70.4493 23.861 70.1771 23.5889C69.9112 23.3167 69.7782 22.9487 69.7782 22.4849ZM78.3367 25.5H80.7581V18.9409C80.9499 18.5203 81.2251 18.1864 81.5838 17.939C81.9487 17.6916 82.3507 17.5679 82.7899 17.5679C83.3156 17.5679 83.7207 17.7039 84.0052 17.9761C84.2959 18.2482 84.4412 18.7121 84.4412 19.3677V25.5H86.8626V19.377C86.8626 18.0163 86.5565 17.0576 85.9442 16.501C85.338 15.9443 84.5464 15.666 83.5692 15.666C82.9507 15.666 82.3909 15.7928 81.89 16.0464C81.3952 16.2938 81.0086 16.6185 80.7303 17.0205H80.6746L80.619 15.8701H78.3367V25.5ZM88.992 28.2183C89.4558 28.6017 90.0372 28.9202 90.7361 29.1738C91.435 29.4274 92.2019 29.5542 93.0369 29.5542C94.4037 29.5542 95.5232 29.1615 96.3953 28.376C97.2735 27.5905 97.7127 26.4618 97.7127 24.9897V15.8701H95.4397L95.3748 17.0391H95.3284C95.1057 16.6494 94.747 16.3278 94.2522 16.0742C93.7574 15.8145 93.1946 15.6846 92.5637 15.6846C91.3268 15.6846 90.3372 16.133 89.595 17.0298C88.8528 17.9266 88.4817 19.0955 88.4817 20.5366V20.8335C88.4817 22.2746 88.8559 23.4435 89.6043 24.3403C90.3526 25.231 91.3391 25.6763 92.5637 25.6763C93.2131 25.6763 93.7667 25.5649 94.2244 25.3423C94.6882 25.1196 95.0501 24.8135 95.3098 24.4238V25.0825C95.3098 25.9546 95.0872 26.6071 94.6419 27.04C94.1965 27.473 93.6121 27.6895 92.8884 27.6895C92.2761 27.6895 91.7133 27.5781 91.2 27.3555C90.6928 27.1328 90.3155 26.8978 90.0681 26.6504L88.992 28.2183ZM90.9495 20.9077V20.4624C90.9495 19.6027 91.1319 18.8976 91.4968 18.3472C91.8679 17.7967 92.4338 17.5215 93.1946 17.5215C93.7141 17.5215 94.1533 17.6637 94.512 17.9482C94.8769 18.2327 95.1397 18.5791 95.3005 18.9873V22.4014C95.1459 22.7725 94.8893 23.1064 94.5305 23.4033C94.1718 23.694 93.7358 23.8394 93.2224 23.8394C92.4493 23.8394 91.8772 23.5641 91.5061 23.0137C91.135 22.4632 90.9495 21.7612 90.9495 20.9077ZM99.4616 22.6704C99.4616 23.6662 99.7771 24.4176 100.408 24.9248C101.045 25.4258 101.837 25.6763 102.783 25.6763C103.575 25.6763 104.233 25.5309 104.759 25.2402C105.285 24.9434 105.647 24.6063 105.844 24.229C105.869 24.4578 105.912 24.6898 105.974 24.9248C106.036 25.1598 106.107 25.3516 106.188 25.5H108.553V25.3516C108.436 25.098 108.343 24.7949 108.275 24.4424C108.207 24.0837 108.173 23.7064 108.173 23.3105V18.9131C108.173 17.7874 107.824 16.9525 107.125 16.4082C106.426 15.8639 105.446 15.5918 104.184 15.5918C102.928 15.5918 101.917 15.8763 101.15 16.4453C100.383 17.0081 99.9997 17.707 99.9997 18.542V18.6719H102.375V18.5513C102.375 18.1925 102.505 17.8926 102.764 17.6514C103.03 17.404 103.473 17.2803 104.091 17.2803C104.703 17.2803 105.133 17.4287 105.381 17.7256C105.628 18.0225 105.752 18.4121 105.752 18.8945V19.4883H103.738C102.501 19.4945 101.478 19.7697 100.668 20.314C99.8636 20.8521 99.4616 21.6375 99.4616 22.6704ZM101.883 22.4849C101.883 22.0086 102.065 21.6406 102.43 21.3809C102.801 21.1211 103.361 20.9912 104.11 20.9912H105.752V22.0488C105.752 22.556 105.535 23.0075 105.102 23.4033C104.669 23.7992 104.153 23.9971 103.553 23.9971C102.978 23.9971 102.554 23.861 102.282 23.5889C102.016 23.3167 101.883 22.9487 101.883 22.4849ZM110.442 25.5H112.872V19.145C113.045 18.7368 113.308 18.4028 113.661 18.1431C114.02 17.8771 114.431 17.7441 114.895 17.7441C115.049 17.7441 115.192 17.7503 115.321 17.7627C115.451 17.7751 115.575 17.7967 115.693 17.8276V15.731C115.631 15.7062 115.529 15.6815 115.386 15.6567C115.25 15.6258 115.117 15.6104 114.987 15.6104C114.505 15.6104 114.078 15.7495 113.707 16.0278C113.342 16.3 113.055 16.6247 112.844 17.002H112.798L112.733 15.8701H110.442V25.5ZM116.263 20.8335C116.263 22.256 116.631 23.4219 117.367 24.3311C118.109 25.234 119.118 25.6855 120.392 25.6855C121.029 25.6855 121.588 25.5557 122.071 25.2959C122.553 25.0299 122.906 24.7052 123.128 24.3218H123.175L123.231 25.5H125.503V11.3613H123.101V16.9092C122.847 16.5381 122.491 16.2412 122.034 16.0186C121.576 15.7959 121.029 15.6846 120.392 15.6846C119.161 15.6846 118.165 16.1392 117.404 17.0483C116.644 17.9513 116.263 19.1141 116.263 20.5366V20.8335ZM118.731 20.9077V20.4624C118.731 19.6027 118.917 18.8976 119.288 18.3472C119.665 17.7967 120.231 17.5215 120.985 17.5215C121.517 17.5215 121.96 17.6606 122.312 17.939C122.671 18.2173 122.931 18.5482 123.091 18.9316V22.4292C122.924 22.8065 122.658 23.1374 122.294 23.4219C121.935 23.7002 121.499 23.8394 120.985 23.8394C120.225 23.8394 119.659 23.5641 119.288 23.0137C118.917 22.4632 118.731 21.7612 118.731 20.9077ZM127.948 25.5H130.444V20.6016H132.875C134.402 20.6016 135.571 20.2181 136.381 19.4512C137.192 18.6781 137.597 17.6204 137.597 16.2783C137.597 14.9362 137.188 13.8879 136.372 13.1333C135.562 12.3726 134.396 11.9922 132.875 11.9922H127.948V25.5ZM130.444 18.709V13.9033H132.661C133.577 13.9033 134.21 14.1229 134.563 14.562C134.922 14.995 135.101 15.5701 135.101 16.2876C135.101 17.0112 134.922 17.5957 134.563 18.041C134.21 18.4863 133.577 18.709 132.661 18.709H130.444ZM138.464 22.6704C138.464 23.6662 138.78 24.4176 139.411 24.9248C140.048 25.4258 140.839 25.6763 141.786 25.6763C142.577 25.6763 143.236 25.5309 143.762 25.2402C144.287 24.9434 144.649 24.6063 144.847 24.229C144.872 24.4578 144.915 24.6898 144.977 24.9248C145.039 25.1598 145.11 25.3516 145.19 25.5H147.556V25.3516C147.439 25.098 147.346 24.7949 147.278 24.4424C147.21 24.0837 147.176 23.7064 147.176 23.3105V18.9131C147.176 17.7874 146.826 16.9525 146.127 16.4082C145.429 15.8639 144.448 15.5918 143.186 15.5918C141.931 15.5918 140.92 15.8763 140.153 16.4453C139.386 17.0081 139.002 17.707 139.002 18.542V18.6719H141.377V18.5513C141.377 18.1925 141.507 17.8926 141.767 17.6514C142.033 17.404 142.475 17.2803 143.094 17.2803C143.706 17.2803 144.136 17.4287 144.383 17.7256C144.631 18.0225 144.754 18.4121 144.754 18.8945V19.4883H142.741C141.504 19.4945 140.481 19.7697 139.67 20.314C138.866 20.8521 138.464 21.6375 138.464 22.6704ZM140.886 22.4849C140.886 22.0086 141.068 21.6406 141.433 21.3809C141.804 21.1211 142.364 20.9912 143.112 20.9912H144.754V22.0488C144.754 22.556 144.538 23.0075 144.105 23.4033C143.672 23.7992 143.156 23.9971 142.556 23.9971C141.98 23.9971 141.557 23.861 141.285 23.5889C141.019 23.3167 140.886 22.9487 140.886 22.4849ZM149.444 25.5H151.866V18.9409C152.057 18.5203 152.333 18.1864 152.691 17.939C153.056 17.6916 153.458 17.5679 153.897 17.5679C154.423 17.5679 154.828 17.7039 155.113 17.9761C155.403 18.2482 155.549 18.7121 155.549 19.3677V25.5H157.97V19.377C157.97 18.0163 157.664 17.0576 157.052 16.501C156.446 15.9443 155.654 15.666 154.677 15.666C154.058 15.666 153.498 15.7928 152.997 16.0464C152.503 16.2938 152.116 16.6185 151.838 17.0205H151.782L151.726 15.8701H149.444V25.5ZM159.589 20.8242C159.589 22.3086 160.019 23.5054 160.879 24.4146C161.745 25.3175 162.951 25.769 164.497 25.769C165.48 25.769 166.321 25.5742 167.02 25.1846C167.719 24.7949 168.22 24.3187 168.523 23.7559L166.826 22.6704C166.578 23.0168 166.257 23.3167 165.861 23.5703C165.471 23.8239 165.004 23.9507 164.46 23.9507C163.643 23.9507 163.031 23.6724 162.623 23.1157C162.215 22.5529 162.011 21.82 162.011 20.917V20.416C162.011 19.513 162.202 18.7832 162.586 18.2266C162.969 17.6637 163.535 17.3823 164.284 17.3823C164.921 17.3823 165.409 17.5864 165.749 17.9946C166.096 18.3966 166.266 18.8914 166.26 19.479V19.6738H161.166V21.2417H168.653V20.3696C168.653 18.8853 168.267 17.7194 167.493 16.8721C166.727 16.0186 165.65 15.5918 164.265 15.5918C162.886 15.5918 161.76 16.0464 160.888 16.9556C160.022 17.8586 159.589 19.0492 159.589 20.5273V20.8242ZM170.309 25.5H172.731V11.3613H170.309V25.5Z" fill="#1E2329"/>
</svg>
