<svg width="101" height="84" viewBox="0 0 101 84" fill="none" xmlns="http://www.w3.org/2000/svg">
<path d="M74.5 8.75L59.7574 0L44.3847 8.75L59.7574 17.625V34.875L74.5 26.375V8.75Z" fill="white"/>
<path d="M74.5 45.75V28.625L59.7574 37L44.3847 28.625V45L59.7574 54L74.5 45.75Z" fill="white"/>
<path d="M57.6153 18.625L42.2426 10.25L27.5 18.625V36.375L42.2426 45V27.375L57.6153 18.625Z" fill="white"/>
<path d="M0.934082 80H2.56006L5.43848 72.1045C5.49707 71.9434 5.5459 71.7871 5.58496 71.6357C5.62891 71.4844 5.66553 71.3281 5.69482 71.167H5.76807C5.79736 71.3281 5.83154 71.4844 5.87061 71.6357C5.91455 71.7871 5.96582 71.9434 6.02441 72.1045L8.88818 80H10.6606L6.5957 69.27H4.96973L0.934082 80ZM2.85303 77.356H8.66846L8.21436 76.0376H3.30713L2.85303 77.356ZM10.0419 72.3096L12.9643 80H14.3119L17.2343 72.3096H15.7255L13.9677 77.2388C13.9042 77.4341 13.8505 77.6147 13.8065 77.7808C13.7675 77.9419 13.7382 78.0762 13.7187 78.1836H13.6674C13.6479 78.0762 13.6161 77.9395 13.5722 77.7734C13.5331 77.6074 13.4818 77.4292 13.4184 77.2388L11.6532 72.3096H10.0419ZM17.553 77.7368C17.553 78.5229 17.8069 79.1211 18.3147 79.5312C18.8274 79.9414 19.4524 80.1465 20.1897 80.1465C20.8245 80.1465 21.3445 80.0269 21.7498 79.7876C22.16 79.5483 22.4505 79.2749 22.6214 78.9673C22.636 79.1528 22.6702 79.3433 22.7239 79.5386C22.7776 79.729 22.8362 79.8828 22.8997 80H24.4817V79.8828C24.3938 79.6729 24.323 79.4287 24.2693 79.1504C24.2205 78.8672 24.1961 78.5669 24.1961 78.2495V74.7339C24.1961 73.8501 23.9275 73.1885 23.3904 72.749C22.8582 72.3096 22.1136 72.0898 21.1565 72.0898C20.1995 72.0898 19.4305 72.3169 18.8494 72.771C18.2732 73.2251 17.9852 73.7695 17.9852 74.4043V74.4702H19.5965V74.4043C19.5965 74.1064 19.7112 73.8501 19.9407 73.6353C20.1751 73.4155 20.5608 73.3057 21.0979 73.3057C21.6399 73.3057 22.0208 73.4375 22.2405 73.7012C22.4603 73.9648 22.5701 74.3091 22.5701 74.7339V75.2319H20.9075C19.9358 75.2319 19.1326 75.4492 18.4979 75.8838C17.868 76.3135 17.553 76.9312 17.553 77.7368ZM19.179 77.627C19.179 77.2168 19.3401 76.8945 19.6624 76.6602C19.9896 76.4258 20.4705 76.3086 21.1053 76.3086H22.5701V77.29C22.5701 77.7002 22.3748 78.0786 21.9842 78.4253C21.5936 78.7671 21.1419 78.938 20.6292 78.938C20.1312 78.938 19.7649 78.8208 19.5306 78.5864C19.2962 78.3521 19.179 78.0322 19.179 77.627ZM26.1042 80H27.7302V74.6533C27.9011 74.3018 28.1428 74.0186 28.4553 73.8037C28.7678 73.584 29.1193 73.4741 29.51 73.4741C29.9738 73.4741 30.3327 73.5962 30.5866 73.8403C30.8405 74.0796 30.9675 74.4849 30.9675 75.0562V80H32.5935V75.0854C32.5935 74.021 32.3566 73.269 31.883 72.8296C31.4094 72.3853 30.7844 72.1631 30.008 72.1631C29.5246 72.1631 29.0827 72.2632 28.6823 72.4634C28.2819 72.6587 27.9572 72.9248 27.7082 73.2617H27.6643L27.613 72.3096H26.1042V80ZM34.3404 82.1021C34.7066 82.4146 35.1632 82.6733 35.7101 82.8784C36.2569 83.0884 36.8526 83.1934 37.4972 83.1934C38.547 83.1934 39.4063 82.8955 40.0753 82.2998C40.7442 81.7041 41.0787 80.8472 41.0787 79.729V72.3096H39.5699L39.5187 73.2764H39.4747C39.2892 72.9639 38.9986 72.7002 38.6031 72.4854C38.2076 72.2705 37.7511 72.1631 37.2335 72.1631C36.2521 72.1631 35.4659 72.5244 34.8751 73.2471C34.2843 73.9697 33.9889 74.8999 33.9889 76.0376V76.272C33.9889 77.4097 34.2843 78.3398 34.8751 79.0625C35.4708 79.7852 36.2569 80.1465 37.2335 80.1465C37.756 80.1465 38.2027 80.0537 38.5738 79.8682C38.9449 79.6826 39.2379 79.436 39.4527 79.1284V79.7583C39.4527 80.4419 39.2696 80.9644 38.9034 81.3257C38.5372 81.687 38.0465 81.8677 37.4313 81.8677C36.943 81.8677 36.5011 81.7749 36.1056 81.5894C35.7101 81.4038 35.4122 81.1987 35.212 80.9741L34.3404 82.1021ZM35.6515 76.3086V76.001C35.6515 75.2686 35.8102 74.6606 36.1275 74.1772C36.4498 73.689 36.9454 73.4448 37.6144 73.4448C38.0685 73.4448 38.4518 73.5693 38.7643 73.8184C39.0816 74.0674 39.3111 74.3604 39.4527 74.6973V77.627C39.3111 77.9492 39.0816 78.2349 38.7643 78.4839C38.4518 78.7329 38.0733 78.8574 37.629 78.8574C36.9503 78.8574 36.4498 78.6157 36.1275 78.1323C35.8102 77.6489 35.6515 77.041 35.6515 76.3086ZM42.5913 77.7368C42.5913 78.5229 42.8452 79.1211 43.353 79.5312C43.8657 79.9414 44.4907 80.1465 45.228 80.1465C45.8628 80.1465 46.3828 80.0269 46.7881 79.7876C47.1982 79.5483 47.4888 79.2749 47.6597 78.9673C47.6743 79.1528 47.7085 79.3433 47.7622 79.5386C47.8159 79.729 47.8745 79.8828 47.938 80H49.52V79.8828C49.4321 79.6729 49.3613 79.4287 49.3076 79.1504C49.2588 78.8672 49.2344 78.5669 49.2344 78.2495V74.7339C49.2344 73.8501 48.9658 73.1885 48.4287 72.749C47.8965 72.3096 47.1519 72.0898 46.1948 72.0898C45.2378 72.0898 44.4688 72.3169 43.8877 72.771C43.3115 73.2251 43.0234 73.7695 43.0234 74.4043V74.4702H44.6348V74.4043C44.6348 74.1064 44.7495 73.8501 44.979 73.6353C45.2134 73.4155 45.5991 73.3057 46.1362 73.3057C46.6782 73.3057 47.0591 73.4375 47.2788 73.7012C47.4985 73.9648 47.6084 74.3091 47.6084 74.7339V75.2319H45.9458C44.9741 75.2319 44.1709 75.4492 43.5361 75.8838C42.9062 76.3135 42.5913 76.9312 42.5913 77.7368ZM44.2173 77.627C44.2173 77.2168 44.3784 76.8945 44.7007 76.6602C45.0278 76.4258 45.5088 76.3086 46.1436 76.3086H47.6084V77.29C47.6084 77.7002 47.4131 78.0786 47.0225 78.4253C46.6318 78.7671 46.1802 78.938 45.6675 78.938C45.1694 78.938 44.8032 78.8208 44.5688 78.5864C44.3345 78.3521 44.2173 78.0322 44.2173 77.627ZM51.1425 80H52.7758V74.7485C52.9125 74.4165 53.1273 74.1406 53.4203 73.9209C53.7133 73.7012 54.0624 73.5913 54.4677 73.5913C54.5897 73.5913 54.702 73.5986 54.8046 73.6133C54.912 73.623 55.0121 73.6377 55.1049 73.6572V72.1997C55.0561 72.1802 54.9755 72.1582 54.8632 72.1338C54.7509 72.1094 54.641 72.0972 54.5336 72.0972C54.1283 72.0972 53.7743 72.2119 53.4716 72.4414C53.1688 72.6709 52.9271 72.9395 52.7465 73.2471H52.7025L52.6513 72.3096H51.1425V80ZM55.6141 76.272C55.6141 77.3999 55.907 78.3276 56.493 79.0552C57.0838 79.7827 57.8772 80.1465 58.8733 80.1465C59.3909 80.1465 59.845 80.0391 60.2356 79.8242C60.6312 79.6094 60.9217 79.3457 61.1072 79.0332H61.1438L61.2024 80H62.7039V68.772H61.0779V73.1738C60.868 72.8711 60.5774 72.627 60.2063 72.4414C59.8353 72.2559 59.3909 72.1631 58.8733 72.1631C57.8919 72.1631 57.1033 72.5269 56.5076 73.2544C55.9119 73.9819 55.6141 74.9097 55.6141 76.0376V76.272ZM57.2767 76.3086V76.001C57.2767 75.2686 57.4378 74.6606 57.7601 74.1772C58.0823 73.689 58.5779 73.4448 59.2469 73.4448C59.701 73.4448 60.0843 73.5693 60.3968 73.8184C60.7093 74.0625 60.9363 74.3457 61.0779 74.668V77.6416C60.9363 77.9639 60.7068 78.2495 60.3895 78.4985C60.077 78.7427 59.6937 78.8647 59.2396 78.8647C58.5706 78.8647 58.075 78.623 57.7527 78.1396C57.4354 77.6514 57.2767 77.041 57.2767 76.3086ZM64.7951 80H66.4724V75.9644H68.4938C69.6853 75.9644 70.6008 75.6641 71.2404 75.0635C71.8801 74.4629 72.1999 73.6548 72.1999 72.6392C72.1999 71.6187 71.8801 70.813 71.2404 70.2222C70.6008 69.6313 69.6853 69.3359 68.4938 69.3359H64.7951V80ZM66.4724 74.646V70.6616H68.4206C69.2019 70.6616 69.7463 70.8472 70.0539 71.2183C70.3664 71.5894 70.5227 72.063 70.5227 72.6392C70.5227 73.2202 70.3664 73.7012 70.0539 74.082C69.7463 74.458 69.2019 74.646 68.4206 74.646H66.4724ZM72.9581 77.7368C72.9581 78.5229 73.212 79.1211 73.7198 79.5312C74.2325 79.9414 74.8575 80.1465 75.5948 80.1465C76.2296 80.1465 76.7496 80.0269 77.1549 79.7876C77.565 79.5483 77.8556 79.2749 78.0265 78.9673C78.0411 79.1528 78.0753 79.3433 78.129 79.5386C78.1827 79.729 78.2413 79.8828 78.3048 80H79.8868V79.8828C79.7989 79.6729 79.7281 79.4287 79.6744 79.1504C79.6256 78.8672 79.6012 78.5669 79.6012 78.2495V74.7339C79.6012 73.8501 79.3326 73.1885 78.7955 72.749C78.2633 72.3096 77.5187 72.0898 76.5616 72.0898C75.6046 72.0898 74.8355 72.3169 74.2545 72.771C73.6783 73.2251 73.3902 73.7695 73.3902 74.4043V74.4702H75.0016V74.4043C75.0016 74.1064 75.1163 73.8501 75.3458 73.6353C75.5802 73.4155 75.9659 73.3057 76.503 73.3057C77.045 73.3057 77.4259 73.4375 77.6456 73.7012C77.8653 73.9648 77.9752 74.3091 77.9752 74.7339V75.2319H76.3126C75.3409 75.2319 74.5377 75.4492 73.9029 75.8838C73.273 76.3135 72.9581 76.9312 72.9581 77.7368ZM74.5841 77.627C74.5841 77.2168 74.7452 76.8945 75.0675 76.6602C75.3946 76.4258 75.8756 76.3086 76.5104 76.3086H77.9752V77.29C77.9752 77.7002 77.7799 78.0786 77.3893 78.4253C76.9986 78.7671 76.547 78.938 76.0343 78.938C75.5362 78.938 75.17 78.8208 74.9356 78.5864C74.7013 78.3521 74.5841 78.0322 74.5841 77.627ZM81.5093 80H83.1353V74.6533C83.3062 74.3018 83.5479 74.0186 83.8604 73.8037C84.1729 73.584 84.5244 73.4741 84.915 73.4741C85.3789 73.4741 85.7378 73.5962 85.9917 73.8403C86.2456 74.0796 86.3726 74.4849 86.3726 75.0562V80H87.9985V75.0854C87.9985 74.021 87.7617 73.269 87.2881 72.8296C86.8145 72.3853 86.1895 72.1631 85.4131 72.1631C84.9297 72.1631 84.4878 72.2632 84.0874 72.4634C83.687 72.6587 83.3623 72.9248 83.1133 73.2617H83.0693L83.0181 72.3096H81.5093V80ZM89.3939 76.272C89.3939 77.4438 89.7235 78.396 90.3827 79.1284C91.0468 79.856 91.9843 80.2197 93.1952 80.2197C93.9423 80.2197 94.5819 80.0635 95.1142 79.751C95.6464 79.4385 96.0346 79.082 96.2787 78.6816L95.1874 77.8906C94.9774 78.1738 94.704 78.4204 94.3671 78.6304C94.0351 78.8403 93.6395 78.9453 93.1806 78.9453C92.4579 78.9453 91.9208 78.6963 91.5692 78.1982C91.2177 77.6953 91.0419 77.0654 91.0419 76.3086V75.9937C91.0419 75.2319 91.2055 74.6021 91.5326 74.104C91.8646 73.6011 92.3627 73.3496 93.0268 73.3496C93.5785 73.3496 94.0009 73.5303 94.2938 73.8916C94.5917 74.248 94.7406 74.6826 94.7406 75.1953V75.3638H90.4413V76.5356H96.3666V75.9058C96.3666 74.729 96.0712 73.7988 95.4804 73.1152C94.8895 72.4316 94.0595 72.0898 92.9901 72.0898C91.9208 72.0898 91.0541 72.4561 90.39 73.1885C89.726 73.916 89.3939 74.8657 89.3939 76.0376V76.272ZM97.8206 80H99.4539V68.772H97.8206V80Z" fill="white"/>
</svg>
