<svg width="22" height="22" viewBox="0 0 22 22" fill="none" xmlns="http://www.w3.org/2000/svg">
<path d="M17.334 13.4681C17.334 14.6506 18.3057 15.6131 19.4882 15.6131C19.4882 19.0506 18.6265 19.9122 15.189 19.9122H6.59067C3.15317 19.9122 2.2915 19.0506 2.2915 15.6131V15.1914C3.474 15.1914 4.44567 14.2197 4.44567 13.0372C4.44567 11.8547 3.474 10.8831 2.2915 10.8831V10.4614C2.30067 7.0239 3.15317 6.16223 6.59067 6.16223H15.1798C18.6173 6.16223 19.479 7.0239 19.479 10.4614V11.3231C18.2965 11.3231 17.334 12.2764 17.334 13.4681Z" stroke="white" stroke-width="1.5" stroke-linecap="round" stroke-linejoin="round"/>
<path d="M14.8603 6.16233H6.52783L9.21367 3.4765C11.4045 1.28567 12.5045 1.28567 14.6953 3.4765L15.2453 4.0265C14.6678 4.604 14.5303 5.4565 14.8603 6.16233Z" stroke="white" stroke-width="1.5" stroke-linecap="round" stroke-linejoin="round"/>
<path d="M9.05566 6.16248L9.05566 19.9125" stroke="white" stroke-width="1.5" stroke-linecap="round" stroke-linejoin="round" stroke-dasharray="5 5"/>
</svg>
