<svg width="31" height="31" viewBox="0 0 31 31" fill="none" xmlns="http://www.w3.org/2000/svg">
<path d="M26.1066 14.7263V9.40133C26.1066 4.36383 24.9316 3.10132 20.2066 3.10132H10.7566C6.03157 3.10132 4.85657 4.36383 4.85657 9.40133V23.4763C4.85657 26.8013 6.68158 27.5888 8.89408 25.2138L8.90656 25.2013C9.93156 24.1138 11.4941 24.2013 12.3816 25.3888L13.6441 27.0763" stroke="white" stroke-width="2" stroke-linecap="round" stroke-linejoin="round"/>
<path d="M10.4816 9.35132H20.4816" stroke="white" stroke-width="2" stroke-linecap="round" stroke-linejoin="round"/>
<path d="M11.7316 14.3513H19.2316" stroke="white" stroke-width="2" stroke-linecap="round" stroke-linejoin="round"/>
<path d="M23.2453 19.0644L18.8204 23.4894C18.6454 23.6644 18.4828 23.9894 18.4453 24.2269L18.2078 25.9144C18.1203 26.5269 18.5453 26.9519 19.1578 26.8644L20.8453 26.6269C21.0828 26.5894 21.4203 26.4269 21.5828 26.2519L26.0079 21.8269C26.7704 21.0644 27.1329 20.1769 26.0079 19.0519C24.8954 17.9394 24.0078 18.3019 23.2453 19.0644Z" stroke="white" stroke-width="2" stroke-miterlimit="10" stroke-linecap="round" stroke-linejoin="round"/>
<path d="M22.6056 19.7017C22.9806 21.0517 24.0306 22.1017 25.3806 22.4767" stroke="white" stroke-width="2" stroke-miterlimit="10" stroke-linecap="round" stroke-linejoin="round"/>
</svg>
