<svg width="22" height="22" viewBox="0 0 22 22" fill="none" xmlns="http://www.w3.org/2000/svg">
<path d="M11.4582 4.12496C10.1932 4.12496 9.1665 3.09829 9.1665 1.83329H8.24984C4.58317 1.83329 3.6665 2.74996 3.6665 6.41663L3.6665 15.5833C3.6665 19.25 4.58317 20.1666 8.24984 20.1666H8.70817C8.70817 18.9016 9.73484 17.875 10.9998 17.875C12.2648 17.875 13.2915 18.9016 13.2915 20.1666H13.7498C17.4165 20.1666 18.3332 19.25 18.3332 15.5833V6.41663C18.3332 2.74996 17.4165 1.83329 13.7498 1.83329C13.7498 3.09829 12.7232 4.12496 11.4582 4.12496Z" stroke="white" stroke-width="2" stroke-linecap="round" stroke-linejoin="round"/>
<path d="M3.6665 12.8333L18.3332 12.8333" stroke="white" stroke-width="2" stroke-linecap="round" stroke-linejoin="round" stroke-dasharray="5.09 5.09"/>
</svg>
