<svg width="35" height="35" viewBox="0 0 35 35" fill="none" xmlns="http://www.w3.org/2000/svg">
<rect width="35" height="35" rx="8" fill="url(#paint0_radial_100_924)"/>
<g filter="url(#filter0_d_100_924)">
<path d="M17.5 9C12.8131 9 9 12.8131 9 17.5V21.0216C9 21.8919 9.76245 22.6 10.7 22.6H11.55C11.7754 22.6 11.9916 22.5104 12.151 22.351C12.3104 22.1916 12.4 21.9754 12.4 21.75V17.3785C12.4 17.153 12.3104 16.9368 12.151 16.7774C11.9916 16.618 11.7754 16.5285 11.55 16.5285H10.7782C11.2508 13.239 14.0813 10.7 17.5 10.7C20.9187 10.7 23.7492 13.239 24.2218 16.5285H23.45C23.2246 16.5285 23.0084 16.618 22.849 16.7774C22.6896 16.9368 22.6 17.153 22.6 17.3785V22.6C22.6 23.5375 21.8376 24.3 20.9 24.3H19.2V23.45H15.8V26H20.9C22.7751 26 24.3 24.4751 24.3 22.6C25.2376 22.6 26 21.8919 26 21.0216V17.5C26 12.8131 22.1869 9 17.5 9Z" fill="white"/>
</g>
<defs>
<filter id="filter0_d_100_924" x="6" y="9" width="23" height="24" filterUnits="userSpaceOnUse" color-interpolation-filters="sRGB">
<feFlood flood-opacity="0" result="BackgroundImageFix"/>
<feColorMatrix in="SourceAlpha" type="matrix" values="0 0 0 0 0 0 0 0 0 0 0 0 0 0 0 0 0 0 127 0" result="hardAlpha"/>
<feOffset dy="4"/>
<feGaussianBlur stdDeviation="1.5"/>
<feComposite in2="hardAlpha" operator="out"/>
<feColorMatrix type="matrix" values="0 0 0 0 0.129167 0 0 0 0 0.129167 0 0 0 0 0.129167 0 0 0 0.17 0"/>
<feBlend mode="normal" in2="BackgroundImageFix" result="effect1_dropShadow_100_924"/>
<feBlend mode="normal" in="SourceGraphic" in2="effect1_dropShadow_100_924" result="shape"/>
</filter>
<radialGradient id="paint0_radial_100_924" cx="0" cy="0" r="1" gradientUnits="userSpaceOnUse" gradientTransform="translate(18 35) rotate(-87.8983) scale(54.5367)">
<stop stop-color="#0077FF"/>
<stop offset="0.515625" stop-color="#3D98FF"/>
<stop offset="1" stop-color="#C5E0FF"/>
</radialGradient>
</defs>
</svg>
