<svg width="35" height="35" viewBox="0 0 35 35" fill="none" xmlns="http://www.w3.org/2000/svg">
<rect width="35" height="35" rx="8" fill="url(#paint0_radial_100_898)"/>
<g filter="url(#filter0_d_100_898)">
<path fill-rule="evenodd" clip-rule="evenodd" d="M18.3586 12.9858L18.6107 13.1048L18.9351 13.2634L19.3268 13.4639L19.6222 13.6197L20.1131 13.8889L20.4694 14.0922L20.8469 14.3139L21.2436 14.5547C21.3116 14.5958 21.3796 14.6383 21.449 14.6815L21.8563 14.9408L22.2388 15.1908L22.5951 15.4317L22.9252 15.6612L23.3679 15.9792L23.6278 16.1704L24.0578 16.5005L24.3638 16.7449C24.82 17.1168 24.8079 17.857 24.3333 18.2444L24.1159 18.4194L23.7178 18.7275L23.2007 19.11L22.899 19.3239L22.5696 19.5527L22.2119 19.7936C22.1492 19.8353 22.0864 19.8769 22.0235 19.9182L21.6268 20.1747L21.4178 20.3057L21.0226 20.5494L20.6458 20.7746L20.2895 20.9814L19.9537 21.1706L19.6406 21.342L19.2163 21.5665L18.9656 21.6947L18.4613 21.9412L18.3125 22.0114C17.7657 22.2621 17.1678 21.9037 17.0977 21.2903L17.0446 20.7661L16.9964 20.1754L16.9738 19.8269L16.9525 19.4444L16.9341 19.0314L16.5828 19.2829L16.3922 19.4167L15.9814 19.6972L15.5309 19.9947L15.0428 20.3064L14.6476 20.5494L14.0901 20.8802L13.5787 21.1706L13.2656 21.342L12.8413 21.5665L12.5906 21.6947L12.0863 21.9412L11.9375 22.0114C11.3907 22.2621 10.7928 21.9037 10.7227 21.2903L10.6845 20.9241L10.6406 20.4247L10.5973 19.8014L10.569 19.2574L10.5527 18.8607L10.5364 18.2189L10.5308 17.7607V17.2769L10.5364 16.8044L10.5471 16.3574L10.5711 15.7377L10.6009 15.183L10.6462 14.5519L10.6802 14.1652L10.7114 13.8584L10.7206 13.7749C10.7936 13.1303 11.4332 12.7315 11.9836 12.9858L12.2357 13.1048L12.5601 13.2634L12.9518 13.4639L13.2472 13.6197L13.5688 13.7947L13.9138 13.9888L14.0944 14.0922L14.4719 14.3139L14.8686 14.5547C15.2484 14.7882 15.6234 15.0294 15.9934 15.2779L16.4 15.5556L16.7683 15.8163L16.9383 15.9388L16.9575 15.5195L16.9787 15.1342L17.0156 14.6242L17.0637 14.0773L17.0956 13.7749C17.1686 13.1303 17.8082 12.7315 18.3586 12.9858Z" fill="white"/>
</g>
<defs>
<filter id="filter0_d_100_898" x="7.53076" y="12.9082" width="20.167" height="16.1841" filterUnits="userSpaceOnUse" color-interpolation-filters="sRGB">
<feFlood flood-opacity="0" result="BackgroundImageFix"/>
<feColorMatrix in="SourceAlpha" type="matrix" values="0 0 0 0 0 0 0 0 0 0 0 0 0 0 0 0 0 0 127 0" result="hardAlpha"/>
<feOffset dy="4"/>
<feGaussianBlur stdDeviation="1.5"/>
<feComposite in2="hardAlpha" operator="out"/>
<feColorMatrix type="matrix" values="0 0 0 0 0.129167 0 0 0 0 0.129167 0 0 0 0 0.129167 0 0 0 0.11 0"/>
<feBlend mode="normal" in2="BackgroundImageFix" result="effect1_dropShadow_100_898"/>
<feBlend mode="normal" in="SourceGraphic" in2="effect1_dropShadow_100_898" result="shape"/>
</filter>
<radialGradient id="paint0_radial_100_898" cx="0" cy="0" r="1" gradientUnits="userSpaceOnUse" gradientTransform="translate(18 35) rotate(-87.8983) scale(54.5367)">
<stop stop-color="#0077FF"/>
<stop offset="0.515625" stop-color="#3D98FF"/>
<stop offset="1" stop-color="#C5E0FF"/>
</radialGradient>
</defs>
</svg>
