<svg width="35" height="35" viewBox="0 0 35 35" fill="none" xmlns="http://www.w3.org/2000/svg">
<rect width="35" height="35.0001" rx="8" fill="#0077FF"/>
<rect width="35" height="35.0001" rx="8" fill="url(#paint0_radial_100_908)"/>
<g filter="url(#filter0_d_100_908)">
<path d="M20.5909 9C19.9761 9 19.3865 9.24424 18.9517 9.67898C18.517 10.1137 18.2728 10.7034 18.2728 11.3182V14.4091C18.2728 15.0239 18.517 15.6135 18.9517 16.0483C19.3865 16.483 19.9761 16.7272 20.5909 16.7272H23.6818C24.2966 16.7272 24.8863 16.483 25.321 16.0483C25.7558 15.6135 26 15.0239 26 14.4091V11.3182C26 10.7034 25.7558 10.1137 25.321 9.67898C24.8863 9.24424 24.2966 9 23.6818 9H20.5909ZM14.2639 9.86777C13.682 8.711 12.0454 8.711 11.4635 9.86777L9.17237 14.423C8.64151 15.4778 9.4011 16.7272 10.5725 16.7272H15.1548C16.3263 16.7272 17.0858 15.4778 16.555 14.423L14.2639 9.86777ZM12.499 10.3886C12.532 10.32 12.5838 10.2621 12.6483 10.2215C12.7129 10.181 12.7875 10.1595 12.8637 10.1595C12.9399 10.1595 13.0145 10.181 13.079 10.2215C13.1435 10.2621 13.1953 10.32 13.2284 10.3886L15.5195 14.9438C15.5531 15.0078 15.5698 15.0793 15.5682 15.1516C15.5665 15.2239 15.5465 15.2945 15.51 15.357C15.4736 15.4194 15.4219 15.4715 15.3597 15.5085C15.2976 15.5454 15.2271 15.5659 15.1548 15.5682H10.5725C10.5003 15.5659 10.4298 15.5454 10.3676 15.5085C10.3055 15.4715 10.2538 15.4194 10.2173 15.357C10.1808 15.2945 10.1608 15.2239 10.1592 15.1516C10.1575 15.0793 10.1743 15.0078 10.2078 14.9438L12.499 10.3886ZM9.00005 22.1363C9.00005 21.5475 9.13142 20.9896 9.3671 20.4904C9.38857 20.4014 9.43095 20.3187 9.49073 20.2493C9.86224 19.5879 10.4194 19.0498 11.0934 18.7016C11.8423 18.3155 12.697 18.1848 13.5271 18.3295C14.3572 18.4742 15.1172 18.8863 15.6914 19.503C16.2656 20.1196 16.6224 20.9071 16.7075 21.7455C16.7927 22.5838 16.6014 23.4269 16.1629 24.1464C15.7244 24.866 15.0627 25.4224 14.2786 25.731C13.4945 26.0395 12.631 26.0833 11.8198 25.8557C11.0085 25.628 10.2939 25.1413 9.78482 24.4699C9.27577 23.7984 9.00018 22.9789 9.00005 22.1363ZM15.5265 22.6131C15.6035 22.1838 15.5755 21.7423 15.445 21.3261C15.3145 20.91 15.0852 20.5316 14.7768 20.2232C14.4684 19.9148 14.09 19.6855 13.6739 19.555C13.2577 19.4245 12.8162 19.3965 12.3869 19.4735L15.5265 22.6131ZM15.0296 23.7567L11.2433 19.9704C11.0249 20.1338 10.8324 20.3292 10.6722 20.5499L14.4493 24.3278C14.6703 24.167 14.8666 23.9746 15.0296 23.756V23.7567ZM12.8637 24.8409C13.009 24.8409 13.1511 24.8293 13.2902 24.8076L10.1924 21.7098C10.1307 22.0962 10.1535 22.4914 10.2594 22.8681C10.3653 23.2448 10.5516 23.594 10.8056 23.8917C11.0595 24.1894 11.3751 24.4284 11.7304 24.5923C12.0857 24.7561 12.4724 24.8409 12.8637 24.8409ZM21.3992 18.4543C21.6266 18.3349 21.8796 18.2725 22.1364 18.2725C22.3932 18.2725 22.6462 18.3349 22.8736 18.4543L25.1855 19.6721C25.4299 19.7989 25.635 19.9901 25.7785 20.2251C25.9221 20.46 25.9987 20.7297 26 21.0051V23.2676C26 23.824 25.687 24.3363 25.1855 24.6005L22.8736 25.8184C22.6462 25.9378 22.3932 26.0001 22.1364 26.0001C21.8796 26.0001 21.6266 25.9378 21.3992 25.8184L19.0872 24.6005C18.8428 24.4737 18.6378 24.2825 18.4942 24.0476C18.3507 23.8126 18.2741 23.5429 18.2728 23.2676V21.0051C18.2728 20.4487 18.5857 19.9364 19.0872 19.6721L21.3992 18.4543ZM22.3334 19.4797C22.2726 19.448 22.205 19.4315 22.1364 19.4315C22.0678 19.4315 22.0002 19.448 21.9393 19.4797L19.6273 20.6975C19.5697 20.7259 19.521 20.7697 19.4865 20.8239C19.452 20.8781 19.4331 20.9408 19.4318 21.0051V23.2676C19.4318 23.3835 19.4975 23.5064 19.6273 23.5751L21.9393 24.7929C22.0002 24.8246 22.0678 24.8412 22.1364 24.8412C22.205 24.8412 22.2726 24.8246 22.3334 24.7929L24.6454 23.5751C24.703 23.5467 24.7518 23.503 24.7862 23.4487C24.8207 23.3945 24.8396 23.3318 24.8409 23.2676V21.0051C24.8396 20.9408 24.8207 20.8781 24.7862 20.8239C24.7518 20.7697 24.703 20.7259 24.6454 20.6975L22.3334 19.4797Z" fill="white"/>
</g>
<defs>
<filter id="filter0_d_100_908" x="6" y="9" width="23" height="24" filterUnits="userSpaceOnUse" color-interpolation-filters="sRGB">
<feFlood flood-opacity="0" result="BackgroundImageFix"/>
<feColorMatrix in="SourceAlpha" type="matrix" values="0 0 0 0 0 0 0 0 0 0 0 0 0 0 0 0 0 0 127 0" result="hardAlpha"/>
<feOffset dy="4"/>
<feGaussianBlur stdDeviation="1.5"/>
<feComposite in2="hardAlpha" operator="out"/>
<feColorMatrix type="matrix" values="0 0 0 0 0.129167 0 0 0 0 0.129167 0 0 0 0 0.129167 0 0 0 0.17 0"/>
<feBlend mode="normal" in2="BackgroundImageFix" result="effect1_dropShadow_100_908"/>
<feBlend mode="normal" in="SourceGraphic" in2="effect1_dropShadow_100_908" result="shape"/>
</filter>
<radialGradient id="paint0_radial_100_908" cx="0" cy="0" r="1" gradientUnits="userSpaceOnUse" gradientTransform="translate(18 35.0001) rotate(-87.8984) scale(54.5369 54.5367)">
<stop stop-color="#0077FF"/>
<stop offset="0.515625" stop-color="#3D98FF"/>
<stop offset="1" stop-color="#C5E0FF"/>
</radialGradient>
</defs>
</svg>
