<svg width="31" height="31" viewBox="0 0 31 31" fill="none" xmlns="http://www.w3.org/2000/svg">
<path d="M13.9211 21.5752V24.1127C13.9211 26.2627 11.921 28.0002 9.45854 28.0002C6.99604 28.0002 4.98352 26.2627 4.98352 24.1127V21.5752C4.98352 23.7252 6.98354 25.2502 9.45854 25.2502C11.921 25.2502 13.9211 23.7127 13.9211 21.5752Z" stroke="white" stroke-width="1.5" stroke-linecap="round" stroke-linejoin="round"/>
<path d="M13.9191 18.1377C13.9191 18.7627 13.7441 19.3376 13.4441 19.8376C12.7066 21.0501 11.1941 21.8127 9.44406 21.8127C7.69406 21.8127 6.18155 21.0376 5.44405 19.8376C5.14405 19.3376 4.96912 18.7627 4.96912 18.1377C4.96912 17.0627 5.46909 16.1002 6.26909 15.4002C7.08159 14.6877 8.19405 14.2627 9.43155 14.2627C10.669 14.2627 11.7816 14.7002 12.5941 15.4002C13.4191 16.0877 13.9191 17.0627 13.9191 18.1377Z" stroke="white" stroke-width="1.5" stroke-linecap="round" stroke-linejoin="round"/>
<path d="M13.9211 18.1375V21.575C13.9211 23.725 11.921 25.25 9.45854 25.25C6.99604 25.25 4.98352 23.7125 4.98352 21.575V18.1375C4.98352 15.9875 6.98354 14.25 9.45854 14.25C10.696 14.25 11.8086 14.6875 12.6211 15.3875C13.4211 16.0875 13.9211 17.0625 13.9211 18.1375Z" stroke="white" stroke-width="1.5" stroke-linecap="round" stroke-linejoin="round"/>
<path d="M27.9816 14.2124V16.7875C27.9816 17.475 27.4316 18.0375 26.7316 18.0625H24.2816C22.9316 18.0625 21.6941 17.075 21.5816 15.725C21.5066 14.9375 21.8066 14.2 22.3316 13.6875C22.7941 13.2125 23.4316 12.9375 24.1316 12.9375H26.7316C27.4316 12.9625 27.9816 13.5249 27.9816 14.2124Z" stroke="white" stroke-width="1.5" stroke-linecap="round" stroke-linejoin="round"/>
<path d="M2.98157 13.625V11.125C2.98157 7.725 5.03157 5.35 8.21907 4.95C8.54407 4.9 8.88157 4.875 9.23157 4.875H20.4816C20.8066 4.875 21.1191 4.88748 21.4191 4.93748C24.6441 5.31248 26.7316 7.7 26.7316 11.125V12.9375H24.1315C23.4315 12.9375 22.794 13.2125 22.3315 13.6875C21.8065 14.2 21.5066 14.9375 21.5816 15.725C21.6941 17.075 22.9315 18.0625 24.2815 18.0625H26.7316V19.875C26.7316 23.625 24.2316 26.125 20.4816 26.125H17.3566" stroke="white" stroke-width="1.5" stroke-linecap="round" stroke-linejoin="round"/>
</svg>
