<svg width="22" height="22" viewBox="0 0 22 22" fill="none" xmlns="http://www.w3.org/2000/svg">
<path d="M18.7918 10.3582V6.45326C18.7918 2.75909 17.9302 1.83325 14.4652 1.83325H7.53516C4.07016 1.83325 3.2085 2.75909 3.2085 6.45326V16.7749C3.2085 19.2132 4.54684 19.7908 6.16934 18.0491L6.17849 18.0399C6.93015 17.2424 8.07599 17.3066 8.72682 18.1774L9.65266 19.4149" stroke="#1E2329" stroke-opacity="0.75" stroke-width="1.5" stroke-linecap="round" stroke-linejoin="round"/>
<path d="M16.6833 19.6167C18.3034 19.6167 19.6167 18.3034 19.6167 16.6833C19.6167 15.0633 18.3034 13.75 16.6833 13.75C15.0633 13.75 13.75 15.0633 13.75 16.6833C13.75 18.3034 15.0633 19.6167 16.6833 19.6167Z" stroke="#1E2329" stroke-opacity="0.75" stroke-width="1.5" stroke-linecap="round" stroke-linejoin="round"/>
<path d="M20.1667 20.1667L19.25 19.25" stroke="#1E2329" stroke-opacity="0.75" stroke-width="1.5" stroke-linecap="round" stroke-linejoin="round"/>
<path d="M7.3335 6.41675H14.6668" stroke="#1E2329" stroke-opacity="0.75" stroke-width="1.5" stroke-linecap="round" stroke-linejoin="round"/>
<path d="M8.25 10.0833H13.75" stroke="#1E2329" stroke-opacity="0.75" stroke-width="1.5" stroke-linecap="round" stroke-linejoin="round"/>
</svg>
