<svg width="31" height="31" viewBox="0 0 31 31" fill="none" xmlns="http://www.w3.org/2000/svg">
<path d="M26.1066 14.4223V9.09737C26.1066 4.05987 24.9316 2.79736 20.2066 2.79736H10.7566C6.03157 2.79736 4.85657 4.05987 4.85657 9.09737V23.1723C4.85657 26.4973 6.68158 27.2849 8.89408 24.9099L8.90656 24.8974C9.93156 23.8099 11.4941 23.8973 12.3816 25.0848L13.6441 26.7724" stroke="white" stroke-width="1.5" stroke-linecap="round" stroke-linejoin="round"/>
<path d="M23.2316 27.0474C25.4407 27.0474 27.2316 25.2565 27.2316 23.0474C27.2316 20.8382 25.4407 19.0474 23.2316 19.0474C21.0224 19.0474 19.2316 20.8382 19.2316 23.0474C19.2316 25.2565 21.0224 27.0474 23.2316 27.0474Z" stroke="white" stroke-width="1.5" stroke-linecap="round" stroke-linejoin="round"/>
<path d="M27.9816 27.7974L26.7316 26.5474" stroke="white" stroke-width="1.5" stroke-linecap="round" stroke-linejoin="round"/>
<path d="M10.4816 9.04736H20.4816" stroke="white" stroke-width="1.5" stroke-linecap="round" stroke-linejoin="round"/>
<path d="M11.7316 14.0474H19.2316" stroke="white" stroke-width="1.5" stroke-linecap="round" stroke-linejoin="round"/>
</svg>
