<svg width="31" height="31" viewBox="0 0 31 31" fill="none" xmlns="http://www.w3.org/2000/svg">
<path d="M6.73157 12.6958H9.23157C11.7316 12.6958 12.9816 11.4458 12.9816 8.9458V6.4458C12.9816 3.9458 11.7316 2.6958 9.23157 2.6958H6.73157C4.23157 2.6958 2.98157 3.9458 2.98157 6.4458V8.9458C2.98157 11.4458 4.23157 12.6958 6.73157 12.6958Z" stroke="white" stroke-width="2" stroke-miterlimit="10" stroke-linecap="round" stroke-linejoin="round"/>
<path d="M21.7316 12.6958H24.2316C26.7316 12.6958 27.9816 11.4458 27.9816 8.9458V6.4458C27.9816 3.9458 26.7316 2.6958 24.2316 2.6958H21.7316C19.2316 2.6958 17.9816 3.9458 17.9816 6.4458V8.9458C17.9816 11.4458 19.2316 12.6958 21.7316 12.6958Z" stroke="white" stroke-width="2" stroke-miterlimit="10" stroke-linecap="round" stroke-linejoin="round"/>
<path d="M21.7316 27.6958H24.2316C26.7316 27.6958 27.9816 26.4458 27.9816 23.9458V21.4458C27.9816 18.9458 26.7316 17.6958 24.2316 17.6958H21.7316C19.2316 17.6958 17.9816 18.9458 17.9816 21.4458V23.9458C17.9816 26.4458 19.2316 27.6958 21.7316 27.6958Z" stroke="white" stroke-width="2" stroke-miterlimit="10" stroke-linecap="round" stroke-linejoin="round"/>
<path d="M6.73157 27.6958H9.23157C11.7316 27.6958 12.9816 26.4458 12.9816 23.9458V21.4458C12.9816 18.9458 11.7316 17.6958 9.23157 17.6958H6.73157C4.23157 17.6958 2.98157 18.9458 2.98157 21.4458V23.9458C2.98157 26.4458 4.23157 27.6958 6.73157 27.6958Z" stroke="white" stroke-width="2" stroke-miterlimit="10" stroke-linecap="round" stroke-linejoin="round"/>
</svg>
