<svg width="31" height="31" viewBox="0 0 31 31" fill="none" xmlns="http://www.w3.org/2000/svg">
<path d="M21.7316 23.1319H16.7316L11.1691 26.8319C10.3441 27.3819 9.23157 26.7944 9.23157 25.7944V23.1319C5.48157 23.1319 2.98157 20.6319 2.98157 16.8819V9.38184C2.98157 5.63184 5.48157 3.13184 9.23157 3.13184H21.7316C25.4816 3.13184 27.9816 5.63184 27.9816 9.38184V16.8819C27.9816 20.6319 25.4816 23.1319 21.7316 23.1319Z" stroke="white" stroke-width="2" stroke-miterlimit="10" stroke-linecap="round" stroke-linejoin="round"/>
<path d="M15.4816 14.2949V14.0325C15.4816 13.1825 16.0066 12.7324 16.5316 12.3699C17.0441 12.0199 17.5565 11.57 17.5565 10.745C17.5565 9.59496 16.6316 8.66992 15.4816 8.66992C14.3316 8.66992 13.4066 9.59496 13.4066 10.745" stroke="white" stroke-width="2" stroke-linecap="round" stroke-linejoin="round"/>
<path d="M15.4759 17.2822H15.4872" stroke="white" stroke-width="2" stroke-linecap="round" stroke-linejoin="round"/>
</svg>
