<svg width="31" height="31" viewBox="0 0 31 31" fill="none" xmlns="http://www.w3.org/2000/svg">
<path d="M16.1066 6.02344C14.3816 6.02344 12.9816 4.62344 12.9816 2.89844H11.7316C6.73157 2.89844 5.48157 4.14844 5.48157 9.14844L5.48157 21.6484C5.48157 26.6484 6.73157 27.8984 11.7316 27.8984H12.3566C12.3566 26.1734 13.7566 24.7734 15.4816 24.7734C17.2066 24.7734 18.6066 26.1734 18.6066 27.8984H19.2316C24.2316 27.8984 25.4816 26.6484 25.4816 21.6484V9.14844C25.4816 4.14844 24.2316 2.89844 19.2316 2.89844C19.2316 4.62344 17.8316 6.02344 16.1066 6.02344Z" stroke="#4EF4FF" stroke-width="2" stroke-linecap="round" stroke-linejoin="round"/>
<path d="M5.48157 17.8984L25.4816 17.8984" stroke="#4EF4FF" stroke-width="2" stroke-linecap="round" stroke-linejoin="round" stroke-dasharray="5.09 5.09"/>
</svg>
